<mxfile host="app.diagrams.net" agent="Mozilla/5.0 (Windows NT 10.0; Win64; x64) AppleWebKit/537.36 (KHTML, like Gecko) Chrome/125.0.0.0 Safari/537.36" version="24.7.6">
  <diagram id="C5RBs43oDa-KdzZeNtuy" name="Page-1">
    <mxGraphModel dx="1265" dy="673" grid="1" gridSize="10" guides="1" tooltips="1" connect="1" arrows="1" fold="1" page="1" pageScale="1" pageWidth="827" pageHeight="1169" math="0" shadow="0">
      <root>
        <mxCell id="WIyWlLk6GJQsqaUBKTNV-0" />
        <mxCell id="WIyWlLk6GJQsqaUBKTNV-1" parent="WIyWlLk6GJQsqaUBKTNV-0" />
        <mxCell id="-3tZdb9XxhylrpX0prTx-3" style="edgeStyle=orthogonalEdgeStyle;rounded=0;orthogonalLoop=1;jettySize=auto;html=1;entryX=0.5;entryY=0;entryDx=0;entryDy=0;" edge="1" parent="WIyWlLk6GJQsqaUBKTNV-1" source="WIyWlLk6GJQsqaUBKTNV-12" target="pSMiITP0uglDrsmcwOC9-10">
          <mxGeometry relative="1" as="geometry" />
        </mxCell>
        <mxCell id="WIyWlLk6GJQsqaUBKTNV-12" value="Apply &lt;b&gt;&lt;font face=&quot;Lucida Console&quot;&gt;norm.cdf&amp;nbsp;&lt;/font&gt;&lt;/b&gt;&lt;br&gt;to make the marginals&lt;br&gt;uniform" style="rounded=1;whiteSpace=wrap;html=1;fontSize=12;glass=0;strokeWidth=1;shadow=0;fillColor=#a20025;fontColor=#ffffff;strokeColor=#6F0000;" parent="WIyWlLk6GJQsqaUBKTNV-1" vertex="1">
          <mxGeometry x="280" y="288" width="170" height="80" as="geometry" />
        </mxCell>
        <mxCell id="-3tZdb9XxhylrpX0prTx-2" style="edgeStyle=orthogonalEdgeStyle;rounded=0;orthogonalLoop=1;jettySize=auto;html=1;" edge="1" parent="WIyWlLk6GJQsqaUBKTNV-1" source="pSMiITP0uglDrsmcwOC9-7" target="WIyWlLk6GJQsqaUBKTNV-12">
          <mxGeometry relative="1" as="geometry" />
        </mxCell>
        <mxCell id="pSMiITP0uglDrsmcwOC9-7" value="Sample from&lt;br&gt;&lt;b&gt;&lt;font face=&quot;Lucida Console&quot;&gt;multivariate_normal&lt;/font&gt;&lt;/b&gt;" style="rounded=1;whiteSpace=wrap;html=1;fillColor=#a20025;fontColor=#ffffff;strokeColor=#6F0000;" parent="WIyWlLk6GJQsqaUBKTNV-1" vertex="1">
          <mxGeometry x="280" y="152" width="168.75" height="80" as="geometry" />
        </mxCell>
        <mxCell id="-3tZdb9XxhylrpX0prTx-4" value="" style="edgeStyle=orthogonalEdgeStyle;rounded=0;orthogonalLoop=1;jettySize=auto;html=1;dashed=1;" edge="1" parent="WIyWlLk6GJQsqaUBKTNV-1" source="pSMiITP0uglDrsmcwOC9-10" target="-3tZdb9XxhylrpX0prTx-0">
          <mxGeometry relative="1" as="geometry" />
        </mxCell>
        <mxCell id="pSMiITP0uglDrsmcwOC9-10" value="copula function" style="ellipse;whiteSpace=wrap;html=1;fillColor=#0050ef;fontColor=#ffffff;strokeColor=#001DBC;" parent="WIyWlLk6GJQsqaUBKTNV-1" vertex="1">
          <mxGeometry x="264.25" y="420" width="202.5" height="80" as="geometry" />
        </mxCell>
        <mxCell id="-3tZdb9XxhylrpX0prTx-1" style="edgeStyle=orthogonalEdgeStyle;rounded=0;orthogonalLoop=1;jettySize=auto;html=1;entryX=0.5;entryY=0;entryDx=0;entryDy=0;" edge="1" parent="WIyWlLk6GJQsqaUBKTNV-1" source="pSMiITP0uglDrsmcwOC9-13" target="pSMiITP0uglDrsmcwOC9-7">
          <mxGeometry relative="1" as="geometry" />
        </mxCell>
        <mxCell id="pSMiITP0uglDrsmcwOC9-13" value="define the &lt;br&gt;correlation matrix&lt;br&gt;&lt;b&gt;&lt;font face=&quot;Lucida Console&quot;&gt;numpy.array(...)&lt;/font&gt;&lt;/b&gt;" style="shape=parallelogram;perimeter=parallelogramPerimeter;whiteSpace=wrap;html=1;fixedSize=1;fillColor=#008a00;fontColor=#ffffff;strokeColor=#005700;" parent="WIyWlLk6GJQsqaUBKTNV-1" vertex="1">
          <mxGeometry x="276" y="20" width="175" height="70" as="geometry" />
        </mxCell>
        <mxCell id="-3tZdb9XxhylrpX0prTx-0" value="Apply &lt;b&gt;&lt;font face=&quot;Lucida Console&quot;&gt;.ppf&amp;nbsp;&lt;/font&gt;&lt;/b&gt;&lt;br&gt;to make the wanted&lt;br&gt;marginals" style="rounded=1;whiteSpace=wrap;html=1;fontSize=12;glass=0;strokeWidth=1;shadow=0;fillColor=#a20025;fontColor=#ffffff;strokeColor=#6F0000;" vertex="1" parent="WIyWlLk6GJQsqaUBKTNV-1">
          <mxGeometry x="279.75" y="560" width="170" height="80" as="geometry" />
        </mxCell>
      </root>
    </mxGraphModel>
  </diagram>
</mxfile>
